<svg width="28" height="28" viewBox="0 0 28 28" fill="none" xmlns="http://www.w3.org/2000/svg">
<path d="M26 14C25.6 14 25.244 13.856 24.932 13.568C24.62 13.28 24.4385 12.924 24.3875 12.5C24.0625 10.175 23.081 8.1935 21.443 6.5555C19.805 4.9175 17.824 3.937 15.5 3.614C15.075 3.564 14.719 3.389 14.432 3.089C14.145 2.789 14.001 2.426 14 2C13.999 1.574 14.149 1.218 14.45 0.932C14.751 0.646 15.101 0.527 15.5 0.575C18.65 0.925 21.3375 2.2125 23.5625 4.4375C25.7875 6.6625 27.075 9.35 27.425 12.5C27.475 12.9 27.356 13.25 27.068 13.55C26.78 13.85 26.424 14 26 14ZM19.7375 14C19.4125 14 19.125 13.8875 18.875 13.6625C18.625 13.4375 18.4375 13.1375 18.3125 12.7625C18.1125 12.0375 17.731 11.394 17.168 10.832C16.605 10.27 15.9615 9.8885 15.2375 9.6875C14.8625 9.5625 14.5625 9.375 14.3375 9.125C14.1125 8.875 14 8.575 14 8.225C14 7.725 14.175 7.319 14.525 7.007C14.875 6.695 15.2625 6.5885 15.6875 6.6875C17.0875 7.0125 18.294 7.6815 19.307 8.6945C20.32 9.7075 20.9885 10.9135 21.3125 12.3125C21.4125 12.7375 21.3 13.125 20.975 13.475C20.65 13.825 20.2375 14 19.7375 14ZM25.925 27.5C22.8 27.5 19.7125 26.819 16.6625 25.457C13.6125 24.095 10.8375 22.1635 8.3375 19.6625C5.8375 17.1615 3.9065 14.3865 2.5445 11.3375C1.1825 8.2885 0.501 5.201 0.5 2.075C0.5 1.625 0.65 1.25 0.95 0.95C1.25 0.65 1.625 0.5 2.075 0.5H8.15C8.5 0.5 8.8125 0.619 9.0875 0.857C9.3625 1.095 9.525 1.376 9.575 1.7L10.55 6.95C10.6 7.35 10.5875 7.6875 10.5125 7.9625C10.4375 8.2375 10.3 8.475 10.1 8.675L6.4625 12.35C6.9625 13.275 7.556 14.1685 8.243 15.0305C8.93 15.8925 9.6865 16.724 10.5125 17.525C11.2875 18.3 12.1 19.019 12.95 19.682C13.8 20.345 14.7 20.951 15.65 21.5L19.175 17.975C19.4 17.75 19.694 17.5815 20.057 17.4695C20.42 17.3575 20.776 17.326 21.125 17.375L26.3 18.425C26.65 18.525 26.9375 18.7065 27.1625 18.9695C27.3875 19.2325 27.5 19.526 27.5 19.85V25.925C27.5 26.375 27.35 26.75 27.05 27.05C26.75 27.35 26.375 27.5 25.925 27.5Z" fill="black"/>
</svg>
