<svg width="27" height="37" viewBox="0 0 27 37" fill="none" xmlns="http://www.w3.org/2000/svg">
<path d="M25.7917 0.625L15.5834 10M25.7917 0.625H17.6251M25.7917 0.625V8.125M9.45842 25V36.25M3.33341 30.625H15.5834M1.29175 15.625C1.29175 17.6141 2.15216 19.5218 3.68371 20.9283C5.21526 22.3348 7.29248 23.125 9.45842 23.125C11.6243 23.125 13.7016 22.3348 15.2331 20.9283C16.7647 19.5218 17.6251 17.6141 17.6251 15.625C17.6251 13.6359 16.7647 11.7282 15.2331 10.3217C13.7016 8.91518 11.6243 8.125 9.45842 8.125C7.29248 8.125 5.21526 8.91518 3.68371 10.3217C2.15216 11.7282 1.29175 13.6359 1.29175 15.625Z" stroke="black" stroke-linecap="round" stroke-linejoin="round"/>
</svg>
