<svg width="36" height="28" viewBox="0 0 36 28" fill="none" xmlns="http://www.w3.org/2000/svg">
<path d="M10.3333 16.6668C9.79028 16.6668 9.33539 16.5388 8.96867 16.2828C8.60194 16.0268 8.41794 15.7103 8.41667 15.3334C8.41539 14.9565 8.59939 14.6401 8.96867 14.3841C9.33794 14.1281 9.79283 14.0001 10.3333 14.0001C10.8738 14.0001 11.3294 14.1281 11.6999 14.3841C12.0705 14.6401 12.2538 14.9565 12.25 15.3334C12.2462 15.7103 12.0622 16.0272 11.698 16.2841C11.3338 16.541 10.8789 16.6685 10.3333 16.6668ZM18 16.6668C17.4569 16.6668 17.0021 16.5388 16.6353 16.2828C16.2686 16.0268 16.0846 15.7103 16.0833 15.3334C16.0821 14.9565 16.2661 14.6401 16.6353 14.3841C17.0046 14.1281 17.4595 14.0001 18 14.0001C18.5405 14.0001 18.996 14.1281 19.3666 14.3841C19.7371 14.6401 19.9205 14.9565 19.9167 15.3334C19.9128 15.7103 19.7288 16.0272 19.3647 16.2841C19.0005 16.541 18.5456 16.6685 18 16.6668ZM25.6667 16.6668C25.1236 16.6668 24.6687 16.5388 24.302 16.2828C23.9353 16.0268 23.7513 15.7103 23.75 15.3334C23.7487 14.9565 23.9327 14.6401 24.302 14.3841C24.6713 14.1281 25.1262 14.0001 25.6667 14.0001C26.2072 14.0001 26.6627 14.1281 27.0332 14.3841C27.4038 14.6401 27.5872 14.9565 27.5833 15.3334C27.5795 15.7103 27.3955 16.0272 27.0313 16.2841C26.6672 16.541 26.2123 16.6685 25.6667 16.6668ZM4.58333 27.3334C3.52917 27.3334 2.62706 27.0725 1.877 26.5508C1.12694 26.029 0.751278 25.401 0.75 24.6668V6.00009C0.75 5.26675 1.12567 4.6392 1.877 4.11742C2.62833 3.59564 3.53044 3.33431 4.58333 3.33342H6.5V2.00009C6.5 1.62231 6.684 1.30586 7.052 1.05075C7.42 0.795642 7.87489 0.667642 8.41667 0.666753C8.95844 0.665864 9.41397 0.793864 9.78325 1.05075C10.1525 1.30764 10.3359 1.62409 10.3333 2.00009V3.33342H25.6667V2.00009C25.6667 1.62231 25.8507 1.30586 26.2187 1.05075C26.5867 0.795642 27.0416 0.667642 27.5833 0.666753C28.1251 0.665864 28.5806 0.793864 28.9499 1.05075C29.3192 1.30764 29.5026 1.62409 29.5 2.00009V3.33342H31.4167C32.4708 3.33342 33.3736 3.59475 34.1249 4.11742C34.8763 4.64009 35.2513 5.26764 35.25 6.00009V24.6668C35.25 25.4001 34.875 26.0281 34.1249 26.5508C33.3749 27.0734 32.4721 27.3343 31.4167 27.3334H4.58333ZM4.58333 24.6668H31.4167V11.3334H4.58333V24.6668Z" fill="black"/>
</svg>
