<svg width="31" height="23" viewBox="0 0 31 23" fill="none" xmlns="http://www.w3.org/2000/svg">
<path d="M16.1666 20.8334V19.2188C16.1666 18.8744 16.2526 18.5459 16.4247 18.2333C16.5967 17.9207 16.8274 17.6464 17.1166 17.4105L24.9145 11.049C25.152 10.8553 25.4159 10.7154 25.7062 10.6292C25.9964 10.5431 26.2867 10.5001 26.577 10.5001C26.8937 10.5001 27.1971 10.5487 27.4874 10.646C27.7777 10.7433 28.0416 10.8884 28.2791 11.0813L29.7437 12.2761C29.9548 12.4699 30.12 12.6852 30.2392 12.922C30.3585 13.1588 30.4176 13.3956 30.4166 13.6324C30.4155 13.8692 30.3627 14.1116 30.2582 14.3596C30.1537 14.6076 29.9822 14.828 29.7437 15.0209L21.9457 21.3824C21.6555 21.6192 21.3193 21.8022 20.9372 21.9313C20.5551 22.0605 20.1524 22.1251 19.7291 22.1251H17.7499C17.3013 22.1251 16.9255 22.0011 16.6226 21.7531C16.3196 21.5051 16.1676 21.1985 16.1666 20.8334ZM0.333252 19.5417V17.2167C0.333252 16.4848 0.564419 15.8123 1.02675 15.1992C1.48909 14.5861 2.10236 14.1176 2.86658 13.7938C4.5027 13.1265 6.1652 12.6262 7.85408 12.2929C9.54297 11.9597 11.2583 11.7926 12.9999 11.7917C13.9763 11.7917 14.9395 11.8404 15.8895 11.9377C16.8395 12.035 17.7895 12.1909 18.7395 12.4053L14.3853 15.9574C13.9367 16.3233 13.5937 16.7431 13.3562 17.2167C13.1187 17.6904 12.9999 18.1855 12.9999 18.7022V20.8334H1.91659C1.46797 20.8334 1.0922 20.7094 0.789252 20.4614C0.486308 20.2134 0.334308 19.9069 0.333252 19.5417ZM26.577 14.8917L28.0416 13.6324L26.577 12.4376L25.0728 13.6647L26.577 14.8917ZM12.9999 10.5001C11.2583 10.5001 9.76728 9.99418 8.527 8.98237C7.28672 7.97057 6.66658 6.75425 6.66658 5.33342C6.66658 3.91258 7.28672 2.69626 8.527 1.68446C9.76728 0.672651 11.2583 0.166748 12.9999 0.166748C14.7416 0.166748 16.2326 0.672651 17.4728 1.68446C18.7131 2.69626 19.3333 3.91258 19.3333 5.33342C19.3333 6.75425 18.7131 7.97057 17.4728 8.98237C16.2326 9.99418 14.7416 10.5001 12.9999 10.5001Z" fill="black"/>
</svg>
