<svg width="42" height="28" viewBox="0 0 42 28" fill="none" xmlns="http://www.w3.org/2000/svg">
<path d="M18.55 24.3882C19.3278 24.6634 20.1444 24.7955 21 24.7845C21.8556 24.7735 22.6722 24.6299 23.45 24.3538L34.0667 20.5356C32.1222 19.733 30.0417 19.1313 27.825 18.7304C25.6083 18.3296 23.3333 18.1287 21 18.1278C18.6667 18.1268 16.3823 18.3277 14.147 18.7304C11.9117 19.1331 9.80155 19.7234 7.81667 20.5012L18.55 24.3882ZM21 15.3759C23.2556 15.3759 25.1806 14.9058 26.775 13.9656C28.3694 13.0254 29.1667 11.8903 29.1667 10.5602C29.1667 9.23014 28.3694 8.095 26.775 7.15479C25.1806 6.21458 23.2556 5.74447 21 5.74447C18.7444 5.74447 16.8194 6.21458 15.225 7.15479C13.6306 8.095 12.8333 9.23014 12.8333 10.5602C12.8333 11.8903 13.6306 13.0254 15.225 13.9656C16.8194 14.9058 18.7444 15.3759 21 15.3759ZM18.55 27.5872L2.21667 21.6708C1.51667 21.4185 0.972222 21.086 0.583333 20.6732C0.194444 20.2604 0 19.8133 0 19.3317V8.66831C0 8.18673 0.194444 7.73956 0.583333 7.32678C0.972222 6.91401 1.51667 6.58149 2.21667 6.32924L18.55 0.412776C19.3278 0.137592 20.1444 0 21 0C21.8556 0 22.6722 0.137592 23.45 0.412776L39.7833 6.32924C40.4833 6.58149 41.0278 6.91401 41.4167 7.32678C41.8056 7.73956 42 8.18673 42 8.66831V19.3317C42 19.8133 41.8056 20.2604 41.4167 20.6732C41.0278 21.086 40.4833 21.4185 39.7833 21.6708L23.45 27.5872C22.6722 27.8624 21.8556 28 21 28C20.1444 28 19.3278 27.8624 18.55 27.5872Z" fill="black"/>
</svg>
