<svg width="41" height="31" viewBox="0 0 41 31" fill="none" xmlns="http://www.w3.org/2000/svg">
<path d="M34.2084 10.3333C32.5764 10.3333 31.1893 9.84714 30.0469 8.87492C28.9045 7.9027 28.3334 6.72214 28.3334 5.33325C28.3334 3.94436 28.9045 2.76381 30.0469 1.79159C31.1893 0.819363 32.5764 0.333252 34.2084 0.333252C35.8403 0.333252 37.2275 0.819363 38.3698 1.79159C39.5122 2.76381 40.0834 3.94436 40.0834 5.33325C40.0834 6.72214 39.5122 7.9027 38.3698 8.87492C37.2275 9.84714 35.8403 10.3333 34.2084 10.3333ZM4.83335 30.3333C3.75627 30.3333 2.83455 30.0071 2.06819 29.3549C1.30183 28.7027 0.917993 27.9177 0.916687 26.9999V6.99992C0.916687 6.08325 1.30052 5.29881 2.06819 4.64658C2.83585 3.99436 3.75758 3.6677 4.83335 3.66659H24.6125C24.482 4.22214 24.4167 4.7777 24.4167 5.33325C24.4167 5.88881 24.482 6.44436 24.6125 6.99992C24.841 7.88881 25.2163 8.71547 25.7386 9.47992C26.2608 10.2444 26.8972 10.9177 27.6479 11.4999L20.5 15.3333L4.83335 6.99992V10.3333L20.5 18.6666L30.8302 13.1666C31.3851 13.3333 31.9399 13.4583 32.4948 13.5416C33.0497 13.6249 33.6209 13.6666 34.2084 13.6666C35.2528 13.6666 36.2809 13.5277 37.2927 13.2499C38.3045 12.9721 39.2347 12.5555 40.0834 11.9999V26.9999C40.0834 27.9166 39.7002 28.7016 38.9338 29.3549C38.1674 30.0083 37.2451 30.3344 36.1667 30.3333H4.83335Z" fill="black"/>
</svg>
