<svg width="37" height="24" viewBox="0 0 37 24" fill="none" xmlns="http://www.w3.org/2000/svg">
<path d="M5.24998 23.75C4.0354 23.75 2.99601 23.5299 2.13181 23.0896C1.26762 22.6494 0.834785 22.1195 0.833313 21.5V10.25C0.833313 9.63125 1.26615 9.10175 2.13181 8.6615C2.99748 8.22125 4.03687 8.00075 5.24998 8H7.45831V5.75C7.45831 4.19375 8.53524 2.86738 10.6891 1.77088C12.843 0.674376 15.4466 0.125751 18.5 0.125001C21.5534 0.124251 24.1577 0.672876 26.3131 1.77088C28.4684 2.86888 29.5446 4.19525 29.5416 5.75V8H31.75C32.9646 8 34.0047 8.2205 34.8704 8.6615C35.736 9.1025 36.1681 9.632 36.1666 10.25V21.5C36.1666 22.1187 35.7345 22.6486 34.8704 23.0896C34.0062 23.5306 32.966 23.7507 31.75 23.75H5.24998ZM18.5 18.125C19.7146 18.125 20.7547 17.9049 21.6204 17.4646C22.486 17.0244 22.9181 16.4945 22.9166 15.875C22.9152 15.2555 22.4831 14.726 21.6204 14.2865C20.7576 13.847 19.7175 13.6265 18.5 13.625C17.2825 13.6235 16.2431 13.844 15.3818 14.2865C14.5206 14.729 14.0877 15.2585 14.0833 15.875C14.0789 16.4915 14.5117 17.0214 15.3818 17.4646C16.2519 17.9079 17.2913 18.128 18.5 18.125ZM11.875 8H25.125V5.75C25.125 4.8125 24.4809 4.01563 23.1927 3.35938C21.9045 2.70313 20.3403 2.375 18.5 2.375C16.6597 2.375 15.0955 2.70313 13.8073 3.35938C12.5191 4.01563 11.875 4.8125 11.875 5.75V8Z" fill="black"/>
</svg>
