<svg width="35" height="27" viewBox="0 0 35 27" fill="none" xmlns="http://www.w3.org/2000/svg">
<path d="M3.5 27C2.5375 27 1.71383 26.6698 1.029 26.0094C0.344167 25.3491 0.00116667 24.5542 0 23.625V3.375C0 2.44687 0.343 1.65262 1.029 0.99225C1.715 0.331875 2.53867 0.001125 3.5 0H31.5C32.4625 0 33.2867 0.33075 33.9727 0.99225C34.6587 1.65375 35.0012 2.448 35 3.375V23.625C35 24.5531 34.6576 25.3479 33.9727 26.0094C33.2879 26.6709 32.4637 27.0011 31.5 27H3.5ZM3.5 23.625H31.5V6.75H3.5V23.625ZM15.6625 16.2844L21.7437 10.4203C22.0937 10.0828 22.5167 9.91406 23.0125 9.91406C23.5083 9.91406 23.9312 10.0828 24.2812 10.4203C24.6312 10.7578 24.8062 11.1656 24.8062 11.6437C24.8062 12.1219 24.6312 12.5297 24.2812 12.8672L16.8875 19.9969C16.5375 20.3344 16.1292 20.5031 15.6625 20.5031C15.1958 20.5031 14.7875 20.3344 14.4375 19.9969L10.7187 16.4109C10.3687 16.0734 10.1937 15.6656 10.1937 15.1875C10.1937 14.7094 10.3687 14.3016 10.7187 13.9641C11.0687 13.6266 11.4917 13.4578 11.9875 13.4578C12.4833 13.4578 12.9062 13.6266 13.2562 13.9641L15.6625 16.2844Z" fill="black"/>
</svg>
